<?xml version="1.0" standalone="no"?><!DOCTYPE svg PUBLIC "-//W3C//DTD SVG 1.1//EN" "http://www.w3.org/Graphics/SVG/1.1/DTD/svg11.dtd"><svg t="1584809906314" class="icon" viewBox="0 0 1024 1024" version="1.1" xmlns="http://www.w3.org/2000/svg" p-id="3261" xmlns:xlink="http://www.w3.org/1999/xlink" width="200" height="200"><defs><style type="text/css"></style></defs><path d="M921.83185788 512c0 9.88191493-3.92569257 19.35772513-10.91270521 26.34473654l-310.47868113 310.47868112c-14.55027237 14.54903084-38.1392007 14.54903084-52.68947428 0-14.55151514-14.55027237-14.55151514-38.14044346-2e-8-52.69071583l284.13270183-284.13270183-284.13270181-284.13394339c-14.55151514-14.54903084-14.55151514-38.14044346 0-52.68947427 14.55027237-14.55027237 38.13920069-14.55027237 52.68947428 0l310.47868113 310.47868112C917.90616652 492.64227487 921.83185787 502.11932661 921.83185788 512z" fill="#707070" p-id="3262"></path><path d="M921.83185788 512c0 20.57604301-16.68139873 37.25744174-37.25744174 37.25744173l-745.14883349 1e-8c-20.57604301 0-37.25744174-16.68139873-37.25744173-37.25744174s16.68139873-37.25744174 37.25744173-37.25744174l745.14883349 1e-8C905.15046036 474.74255826 921.83185787 491.42395699 921.83185788 512z" fill="#707070" p-id="3263"></path></svg>