<?xml version="1.0" standalone="no"?><!DOCTYPE svg PUBLIC "-//W3C//DTD SVG 1.1//EN" "http://www.w3.org/Graphics/SVG/1.1/DTD/svg11.dtd"><svg t="1655387977292" class="icon" viewBox="0 0 1024 1024" version="1.1" xmlns="http://www.w3.org/2000/svg" p-id="5063" xmlns:xlink="http://www.w3.org/1999/xlink" width="200" height="200"><defs><style type="text/css">@font-face { font-family: feedback-iconfont; src: url("//at.alicdn.com/t/font_1031158_u69w8yhxdu.woff2?t=1630033759944") format("woff2"), url("//at.alicdn.com/t/font_1031158_u69w8yhxdu.woff?t=1630033759944") format("woff"), url("//at.alicdn.com/t/font_1031158_u69w8yhxdu.ttf?t=1630033759944") format("truetype"); }
</style></defs><path d="M236.307692 580.923077V177.230769c0-43.323077-35.446154-78.769231-78.76923-78.769231H108.307692C92.553846 98.461538 78.769231 112.246154 78.769231 128v452.923077c0 15.753846 13.784615 29.538462 29.538461 29.538461h98.461539c15.753846 0 29.538462-13.784615 29.538461-29.538461zM945.230769 512V265.846154C945.230769 94.523077 809.353846 78.769231 661.661538 78.769231c-139.815385 0-185.107692 53.169231-319.015384 59.076923-15.753846 0-27.569231 13.784615-27.569231 29.538461v393.846154c0 15.753846 13.784615 29.538462 29.538462 29.538462 94.523077 0 167.384615 102.4 167.384615 206.769231v118.153846c0 15.753846 13.784615 29.538462 29.538462 29.538461H590.769231c43.323077 0 78.769231-35.446154 78.769231-78.769231V669.538462c0-43.323077 35.446154-78.769231 78.76923-78.769231h118.153846c43.323077 0 78.769231-35.446154 78.769231-78.769231z" p-id="5064" fill="#d81e06"></path></svg>