<?xml version="1.0" standalone="no"?><!DOCTYPE svg PUBLIC "-//W3C//DTD SVG 1.1//EN" "http://www.w3.org/Graphics/SVG/1.1/DTD/svg11.dtd"><svg t="1655408620425" class="icon" viewBox="0 0 1024 1024" version="1.1" xmlns="http://www.w3.org/2000/svg" p-id="7207" xmlns:xlink="http://www.w3.org/1999/xlink" width="200" height="200"><defs><style type="text/css">@font-face { font-family: feedback-iconfont; src: url("//at.alicdn.com/t/font_1031158_u69w8yhxdu.woff2?t=1630033759944") format("woff2"), url("//at.alicdn.com/t/font_1031158_u69w8yhxdu.woff?t=1630033759944") format("woff"), url("//at.alicdn.com/t/font_1031158_u69w8yhxdu.ttf?t=1630033759944") format("truetype"); }
</style></defs><path d="M141.8 363c0-82 50-153 121.2-183l-15.4 0c-82.2 0-150.2 65.6-162.2 150.4-12 2-21.4 15.8-21.4 32.2 0 17.2 10.2 30.8 23.2 31.8 14.4 72.8 70.2 131.6 139.4 137.6 0 0 0.2 0 0.2 0 2.8 0 5.6 1.2 8.4 1.8 2.2 0.4 4.4 0.8 6.6 1.4C182 501 141.8 436.8 141.8 363z" p-id="7208" fill="#f4ea2a"></path><path d="M930.2 182c-2.2-5.8-4.6-11.2-7-16.6-13-28.8-28.8-52-46.8-69.2C854 75.2 828.2 64 801.6 64c-16.6 0-32.8 4.4-48.2 12.8 0 0 0 0-0.2 0-2.4 1.4-4.8 2.6-7.2 4-98 58-208.2 92.4-325.2 98.8-13 0.8-26 0.4-39 0.4l-84.6 0c-68 30-118 101-118 183 0 73.6 38.4 138.2 95.6 172.2 26 21.8 83.4 23.4 80 47.8-3.8 26.4-11 43.8-15.6 61.4-2.6 9.6-47.2 145.8-50.6 289.4 0 4 0 7.4 0.4 13.2 0.4 5.8 4.4 12.8 17 12.8l153.6 0c13.2 0 19.4-6.6 18.6-18.6-0.4-3.8-1.2-8.6-1.6-13-4.8-46.2-9.2-99.6-6.6-163.2 2.6-68 10.4-103.8 14-122.6 4.2-20.8 15.2-44.8 24.2-60.6 61.6 1.8 185.8 38.6 230.2 57.8 0 0 14.4 6.8 20.2 10.4 14 6.8 28.4 10.2 43.2 10.2 1.8 0 3.6 0 5.4-0.2 24.6-1.4 48.4-19.4 69.4-39 18.2-17 33.8-40.4 46.8-69.2 2.4-5.6 4.8-11.2 7-17.2 19.2-50 29.6-111.8 29.6-176.2C960 294 949.6 232 930.2 182zM884 535c-15.6 37-36.4 66.6-59 66.6-22.6 0-43.2-29.4-58.8-66.6-18.2-43.2-29.8-106.2-29.8-176.2 0-70.4 11.6-133.6 30-176.8 15.6-36.8 36.2-59 58.6-59 22.6 0 43 22.4 58.8 59 18.4 43.2 30 106.4 30 176.8C913.8 428.8 902.2 491.8 884 535z" p-id="7209" fill="#f4ea2a"></path></svg>