<?xml version="1.0" standalone="no"?><!DOCTYPE svg PUBLIC "-//W3C//DTD SVG 1.1//EN" "http://www.w3.org/Graphics/SVG/1.1/DTD/svg11.dtd"><svg t="1584170216864" class="icon" viewBox="0 0 1024 1024" version="1.1" xmlns="http://www.w3.org/2000/svg" p-id="13315" xmlns:xlink="http://www.w3.org/1999/xlink" width="200" height="200"><defs><style type="text/css"></style></defs><path d="M292.608 691.904c-98.304 0-173.6-12.992-207.392-38.208-13.088-9.696-20.608-21.408-22.4-34.592-2.784-20.288 8.384-40.8 33.216-60.896 2.912-2.304 46.112-26.304 53.088-27.904a18.016 18.016 0 0 1 9.792 34.592c-5.888 2.592-37.088 19.392-41.312 22.112-12.416 10.112-20 20.608-19.104 27.2 0.608 4.096 4.8 8.096 8.288 10.688 41.984 31.296 199.104 45.312 418.016 11.616 272.512-42.112 407.296-120.512 403.2-150.816-1.216-8.704-18.912-27.808-63.712-27.808a17.984 17.984 0 1 1 0-36.032c62.688 0 95.488 30.592 99.392 58.912 12.288 89.408-252.384 163.392-433.312 191.296-86.592 13.312-168.096 19.808-237.792 19.808z m-32.224-219.52c-0.608 0-1.088-0.096-1.696-0.192a8.992 8.992 0 0 1-7.2-10.496c3.2-16.896 8.096-33.6 14.592-49.6a9.056 9.056 0 0 1 11.712-4.992 9.056 9.056 0 0 1 4.992 11.712 249.152 249.152 0 0 0-13.6 46.208 8.96 8.96 0 0 1-8.8 7.392z m52.512-113.088a9.28 9.28 0 0 1-5.696-2.016 8.96 8.96 0 0 1-1.312-12.704 266.752 266.752 0 0 1 156.8-94.304 8.992 8.992 0 0 1 3.392 17.696 248.32 248.32 0 0 0-146.208 87.904 9.024 9.024 0 0 1-7.008 3.392z m200.192 532.896c-209.696 0-380.384-170.592-380.384-380.384a381.312 381.312 0 0 1 6.688-71.584c34.112-178.912 191.2-308.8 373.6-308.8a380.48 380.48 0 0 1 334.784 199.584 17.952 17.952 0 1 1-31.68 17.088 344.32 344.32 0 0 0-303.104-180.704c-164.992 0.096-307.296 117.6-338.112 279.616a350.72 350.72 0 0 0-6.08 64.896c0 189.888 154.496 344.288 344.288 344.288s344.288-154.496 344.288-344.288c0-22.912-2.304-45.792-6.688-68.096a18.016 18.016 0 0 1 35.328-7.072c4.896 24.608 7.392 49.888 7.392 75.2 0.096 209.696-170.496 380.288-380.288 380.288z" p-id="13316"></path></svg>