<?xml version="1.0" standalone="no"?><!DOCTYPE svg PUBLIC "-//W3C//DTD SVG 1.1//EN" "http://www.w3.org/Graphics/SVG/1.1/DTD/svg11.dtd"><svg t="1584810970708" class="icon" viewBox="0 0 1024 1024" version="1.1" xmlns="http://www.w3.org/2000/svg" p-id="12050" xmlns:xlink="http://www.w3.org/1999/xlink" width="200" height="200"><defs><style type="text/css"></style></defs><path d="M453.485714 464.457143m-398.628571 0a398.628571 398.628571 0 1 0 797.257143 0 398.628571 398.628571 0 1 0-797.257143 0Z" fill="#C8E866" p-id="12051"></path><path d="M512 1024C230.4 1024 0 793.6 0 512S230.4 0 512 0s512 230.4 512 512-230.4 512-512 512z m0-950.857143C270.628571 73.142857 73.142857 270.628571 73.142857 512s197.485714 438.857143 438.857143 438.857143 438.857143-197.485714 438.857143-438.857143S753.371429 73.142857 512 73.142857z" fill="#333333" p-id="12052"></path><path d="M416.914286 471.771429c-7.314286-3.657143-7.314286-7.314286-7.314286-14.628572 3.657143-7.314286 7.314286-7.314286 14.628571-7.314286 21.942857-3.657143 40.228571-10.971429 54.857143-25.6 7.314286-18.285714 25.6-25.6 54.857143-25.6 18.285714 3.657143 32.914286 7.314286 36.571429 14.628572 7.314286 7.314286 10.971429 18.285714 7.314285 25.6 0 7.314286-3.657143 14.628571-10.971428 29.257143-29.257143 98.742857-47.542857 164.571429-51.2 190.171428-3.657143 14.628571 3.657143 25.6 21.942857 25.6 10.971429 0 29.257143-10.971429 51.2-36.571428 3.657143-7.314286 7.314286-7.314286 10.971429-3.657143v10.971428c-25.6 62.171429-58.514286 91.428571-102.4 87.771429-43.885714-7.314286-62.171429-32.914286-58.514286-84.114286 3.657143-21.942857 14.628571-80.457143 40.228571-175.542857-25.6 0-43.885714-3.657143-62.171428-10.971428z m128-245.028572c10.971429 0 29.257143 3.657143 47.542857 10.971429 21.942857 10.971429 32.914286 25.6 32.914286 43.885714 3.657143 18.285714-29.257143 40.228571-95.085715 62.171429-10.971429 0-14.628571 0-18.285714-3.657143-3.657143-3.657143-3.657143-7.314286 0-14.628572 14.628571-18.285714 21.942857-32.914286 25.6-47.542857 0-10.971429-3.657143-18.285714-10.971429-29.257143-3.657143-7.314286-3.657143-14.628571 0-18.285714 0-3.657143 7.314286-3.657143 18.285715-3.657143z" fill="#333333" p-id="12053"></path><path d="M563.2 288.914286m-51.2 0a51.2 51.2 0 1 0 102.4 0 51.2 51.2 0 1 0-102.4 0Z" fill="#333333" p-id="12054"></path><path d="M431.542857 274.285714a120.685714 102.4 0 1 0 241.371429 0 120.685714 102.4 0 1 0-241.371429 0Z" fill="#C8E866" p-id="12055"></path><path d="M574.171429 288.914286m-51.2 0a51.2 51.2 0 1 0 102.4 0 51.2 51.2 0 1 0-102.4 0Z" fill="#333333" p-id="12056"></path></svg>