<?xml version="1.0" standalone="no"?><!DOCTYPE svg PUBLIC "-//W3C//DTD SVG 1.1//EN" "http://www.w3.org/Graphics/SVG/1.1/DTD/svg11.dtd"><svg t="1655753747057" class="icon" viewBox="0 0 1024 1024" version="1.1" xmlns="http://www.w3.org/2000/svg" p-id="9145" xmlns:xlink="http://www.w3.org/1999/xlink" width="200" height="200"><defs><style type="text/css">@font-face { font-family: feedback-iconfont; src: url("//at.alicdn.com/t/font_1031158_u69w8yhxdu.woff2?t=1630033759944") format("woff2"), url("//at.alicdn.com/t/font_1031158_u69w8yhxdu.woff?t=1630033759944") format("woff"), url("//at.alicdn.com/t/font_1031158_u69w8yhxdu.ttf?t=1630033759944") format("truetype"); }
</style></defs><path d="M133.76 685.44c10.88 23.68 23.68 46.08 38.4 66.56l52.48-37.12c-12.8-17.28-23.68-36.48-32.64-56.32l-58.24 26.88zM282.24 858.88c67.84 45.44 147.84 69.12 229.76 69.12v-64c-69.76 0-136.96-20.48-194.56-58.88l-35.2 53.76zM512 96c-144 0-277.12 76.8-352 195.84V160h-64v256h256v-64H199.04c59.52-115.84 180.48-192 312.96-192 193.92 0 352 158.08 352 352a352 352 0 0 1-287.36 346.24l11.52 62.72A415.744 415.744 0 0 0 928 512c0-229.12-186.88-416-416-416z" fill="#1296db" p-id="9146"></path><path d="M480 256v269.44l145.28 145.28 44.8-45.44L544 498.56V256z" fill="#1296db" p-id="9147"></path></svg>