<?xml version="1.0" standalone="no"?><!DOCTYPE svg PUBLIC "-//W3C//DTD SVG 1.1//EN" "http://www.w3.org/Graphics/SVG/1.1/DTD/svg11.dtd"><svg t="1584811487807" class="icon" viewBox="0 0 1024 1024" version="1.1" xmlns="http://www.w3.org/2000/svg" p-id="44299" xmlns:xlink="http://www.w3.org/1999/xlink" width="200" height="200"><defs><style type="text/css"></style></defs><path d="M512 494c-99.411 0-180-80.589-180-180S412.589 134 512 134s180 80.589 180 180-80.589 180-180 180z" fill="#3498FD" p-id="44300"></path><path d="M512 430c-64.065 0-116-51.935-116-116S447.935 198 512 198s116 51.935 116 116-51.935 116-116 116z" fill="#B9DAFF" p-id="44301"></path><path d="M96 593m149 0l534 0q149 0 149 149l0 0q0 149-149 149l-534 0q-149 0-149-149l0 0q0-149 149-149Z" fill="#3498FD" p-id="44302"></path><path d="M160 657m85 0l534 0q85 0 85 85l0 0q0 85-85 85l-534 0q-85 0-85-85l0 0q0-85 85-85Z" fill="#FFFFFF" p-id="44303"></path></svg>