<?xml version="1.0" standalone="no"?><!DOCTYPE svg PUBLIC "-//W3C//DTD SVG 1.1//EN" "http://www.w3.org/Graphics/SVG/1.1/DTD/svg11.dtd"><svg t="1584810998478" class="icon" viewBox="0 0 1024 1024" version="1.1" xmlns="http://www.w3.org/2000/svg" p-id="15356" xmlns:xlink="http://www.w3.org/1999/xlink" width="200" height="200"><defs><style type="text/css"></style></defs><path d="M92.16 745.472l421.888 241.664 122.88-40.96c98.304-143.36 57.344-339.968-86.016-438.272S206.848 450.56 108.544 593.92c-4.096 8.192-8.192 20.48-16.384 28.672v122.88z" fill="#32CB9D" p-id="15357"></path><path d="M514.048 1024c-16.384 0-32.768-4.096-49.152-12.288l-360.448-208.896c-28.672-16.384-49.152-49.152-49.152-81.92V303.104c0-32.768 16.384-65.536 49.152-81.92L464.896 12.288c28.672-16.384 65.536-16.384 94.208 0L919.552 221.184c16.384 8.192 20.48 28.672 12.288 45.056-8.192 16.384-28.672 20.48-45.056 12.288l-360.448-208.896c-8.192-4.096-20.48-4.096-28.672 0L141.312 278.528c-8.192 8.192-16.384 16.384-12.288 24.576v413.696c0 8.192 4.096 20.48 12.288 24.576l360.448 208.896c8.192 4.096 20.48 4.096 28.672 0l360.448-208.896c8.192-4.096 12.288-12.288 12.288-24.576v-282.624c0-20.48 16.384-32.768 32.768-32.768s32.768 16.384 32.768 32.768v282.624c0 32.768-16.384 65.536-49.152 81.92l-360.448 208.896c-12.288 12.288-28.672 16.384-45.056 16.384z" fill="#160C2F" p-id="15358"></path><path d="M514.048 667.648c-86.016 0-155.648-69.632-155.648-155.648S428.032 356.352 514.048 356.352s155.648 69.632 155.648 155.648-69.632 155.648-155.648 155.648z m0-245.76c-49.152 0-86.016 40.96-86.016 86.016 0 49.152 40.96 86.016 86.016 86.016 49.152 0 86.016-40.96 86.016-86.016s-36.864-86.016-86.016-86.016z" fill="#160C2F" p-id="15359"></path></svg>