<?xml version="1.0" standalone="no"?><!DOCTYPE svg PUBLIC "-//W3C//DTD SVG 1.1//EN" "http://www.w3.org/Graphics/SVG/1.1/DTD/svg11.dtd"><svg t="1582729881447" class="icon" viewBox="0 0 1024 1024" version="1.1" xmlns="http://www.w3.org/2000/svg" p-id="2152" xmlns:xlink="http://www.w3.org/1999/xlink" width="200" height="200"><defs><style type="text/css"></style></defs><path d="M511.36 475.2192c-31.73504 0-57.44896 25.71904-57.44896 57.45024 0 31.72992 25.71392 57.45024 57.44896 57.45024s57.44896-25.72032 57.44896-57.45024c0-31.73248-25.71392-57.45024-57.44896-57.45024m0-114.8992c-95.1872 0-172.34816 77.16608-172.34816 172.34816 0 95.18208 77.16096 172.34688 172.34816 172.34688 95.18848 0 172.34944-77.1648 172.34944-172.34688C683.70816 437.48608 606.5472 360.32 511.36 360.32m0 268.09728c-52.88576 0-95.74784-42.86592-95.74784-95.74912 0-52.88192 42.86208-95.74912 95.74784-95.74912s95.74912 42.8672 95.74912 95.74912c0 52.8832-42.86464 95.74912-95.74912 95.74912m411.71968-430.86976H339.01184c-26.70464 0-36.064 25.4976-36.064 25.4976-23.32032 47.28064-59.55328 70.25024-105.76256 70.25024H99.63904c-21.12256 0-38.29888 17.17632-38.29888 38.29888v440.44544c0 21.12384 17.17632 38.30016 38.29888 38.30016h823.44064c21.12256 0 38.30016-17.17632 38.30016-38.30016V235.8464c0-21.12256-17.1776-38.29888-38.30016-38.29888m-469.16992 28.7232h114.8992c15.86816 0 28.72576 12.8576 28.72576 28.72448 0 15.86816-12.8576 28.72448-28.72576 28.72448h-114.8992c-15.86688 0-28.7232-12.85632-28.7232-28.72448 0-15.8656 12.85632-28.72448 28.7232-28.72448M511.36 743.31648c-116.33792 0-210.64704-94.31424-210.64704-210.64704 0-116.33408 94.30912-210.64704 210.64704-210.64704 116.3392 0 210.6496 94.31296 210.6496 210.64704-0.00128 116.3328-94.3104 210.64704-210.6496 210.64704m229.79712-421.29536c-15.86816 0-28.72448-12.8576-28.72448-28.72448 0-15.86816 12.85632-28.72448 28.72448-28.72448 15.86688 0 28.72448 12.85632 28.72448 28.72448 0.00128 15.86688-12.85632 28.72448-28.72448 28.72448m124.47232 28.72448c-31.73376 0-57.44768-25.71776-57.44768-57.44896s25.71392-57.45024 57.44768-57.45024c31.73632 0 57.45024 25.71904 57.45024 57.45024s-25.71392 57.44896-57.45024 57.44896m0-76.59904c-10.58432 0-19.1488 8.57856-19.1488 19.15008 0 10.57024 8.56448 19.15008 19.1488 19.15008 10.58688 0 19.15008-8.57984 19.15008-19.15008 0-10.57152-8.5632-19.15008-19.15008-19.15008" fill="#FFFFFF" p-id="2153"></path><path d="M61.34016 398.62016v268.096h287.5264c-30.08-36.41984-48.15488-83.11552-48.15488-134.048 0-50.92736 18.07488-97.62432 48.15488-134.04928H61.34016z m612.512 0c30.08128 36.42496 48.15616 83.12064 48.15616 134.04928 0 50.93248-18.07488 97.62688-48.15616 134.048h287.52768v-268.096H673.85216z" fill="#F7D54A" p-id="2154"></path><path d="M511.36 475.2192c-31.73504 0-57.44896 25.71904-57.44896 57.45024 0 31.72992 25.71392 57.45024 57.44896 57.45024s57.44896-25.72032 57.44896-57.45024c0-31.73248-25.71392-57.45024-57.44896-57.45024" fill="#86AEDD" p-id="2155"></path><path d="M396.4608 628.41728h19.15008v-19.1488h-19.15008v19.1488z m243.09376 19.1488h-13.29664v13.30304c4.67584-4.1856 9.11872-8.6272 13.29664-13.30304m-262.24384-38.2976h19.15008V590.1184h-19.15008v19.15008z m277.33504 19.1488h-9.23776v12.46464c3.2448-4.02048 6.35904-8.1536 9.23776-12.46464m-181.58592 38.29888h19.15008v-19.15008h-19.15008v19.15008z m38.30016 0h19.1488v-19.15008H511.36v19.15008z m108.21248 0h-12.46336v9.24032c4.30976-2.88128 8.44288-5.99424 12.46336-9.24032m54.12096-76.59776c2.19776-6.2336 4.10496-12.61056 5.6-19.15008h-14.73536v19.15008h9.13536z m-258.08256 57.44768h19.1488v-19.1488h-19.1488v19.1488z m19.15008 19.15008h19.1488v-19.15008h-19.1488v19.15008z m229.83424-55.40096c0.34688-0.66688 0.65664-1.3632 0.992-2.04672h-1.02912v2.12608a0.25088 0.25088 0 0 1 0.03712-0.07936m-315.56864-21.1968a173.23648 173.23648 0 0 0 8.10624 19.15008h1.02784V590.1184h-9.13408z m296.38272-57.45024h-19.15008v19.15008h19.15008v-19.15008z m-268.09856 0h-19.15008v19.15008h19.15008v-19.15008z m46.3232 38.30016c-2.66496-6.08896-4.75008-12.4736-6.09664-19.15008h-1.92512v19.15008h8.02176z m-8.02304-38.30016h-19.15008v19.15008h19.15008v-19.15008z m-75.47776 19.15008c0.72832 6.51136 1.87008 12.8768 3.29088 19.15008h14.73664v-19.15008h-18.02752z m94.62784 135.07328a172.75904 172.75904 0 0 0 19.1488 8.11136v-9.13664h-19.1488v1.02528z m38.29888 13.71264c2.5152 0.56448 5.06752 1.05088 7.61088 1.53344 3.8144 0.68608 7.63904 1.32736 11.5392 1.75616v-18.02752h-19.15008v14.73792z m38.30016 4.41216c5.01248 0 9.93024-0.33664 14.8224-0.7488 1.44896-0.13056 2.88896-0.21888 4.32768-0.37376v-18.02752H511.36v19.15008z m-19.15008-78.52544c-6.66624-1.34656-13.06368-3.4368-19.15008-6.09792v8.02432h19.15008v-1.9264z m97.87136 59.37536h-2.12224v1.02528c0.70272-0.35712 1.43104-0.66048 2.12224-1.02528m-59.57248-59.37536a95.14496 95.14496 0 0 1-19.1488 1.9264h19.1488v-1.9264z m19.15008 74.11328c6.53568-1.49632 12.91392-3.3984 19.15008-5.60128v-9.13664h-19.15008v14.73792z m-114.89792-110.65856v0.17408h0.13184c-0.04736-0.0576-0.08576-0.11392-0.13184-0.17408m19.19616 19.22816a0.13568 0.13568 0 0 1-0.04736-0.04096v0.13568h0.16896l-0.1216-0.09472m76.55168 76.69248h19.15008v-19.15008H530.5088v19.15008z m-114.89792-19.15008v9.24032c5.45152 3.64672 11.16416 6.89664 17.02656 9.90976h2.12224v-19.15008h-19.1488z m-19.15008-19.15008v13.30304c2.20672 1.97632 4.37504 3.98208 6.68544 5.84704h12.46464v-19.15008h-19.15008z m57.44896 38.30016h19.15008v-19.15008h-19.15008v19.15008z m-76.59904-114.89792h-19.15008v19.15008h19.15008v-19.15008z m0 57.44896v12.46464c1.87008 2.30912 3.87072 4.48256 5.84448 6.68416h13.3056v-19.1488h-19.15008z m172.34816 38.29888h19.15008v-19.15008h-19.15008v19.15008z m-191.49824-57.44768v2.12608c3.0208 5.85728 6.2656 11.57632 9.91232 17.02272h9.23776v-19.1488h-19.15008z m134.04928 76.59776h19.1488v-19.15008h-19.1488v19.15008z m153.19936-114.89792h19.15008v-19.15008h-19.15008v19.15008z m0 38.30016h19.15008V590.1184h-19.15008v19.15008z m38.29888-76.60032h-19.15008v19.15008h18.02752c0.69248-6.29376 1.12256-12.66944 1.12256-19.15008m-76.59904 114.89792h19.15008v-19.1488h-19.15008v19.1488z m-19.15008 19.15008h19.15008v-19.15008h-19.15008v19.15008z m38.30016-38.29888h19.15008v-19.1488h-19.15008v19.1488z m-57.45024 57.44896h19.15008v-19.15008h-19.15008v19.15008zM396.4608 551.81824h-19.15008v19.15008h19.15008v-19.15008z m0 38.30016h19.15008v-19.15008h-19.15008v19.15008z m210.64832-19.15008h-8.02304c-1.44896 3.32416-3.12192 6.5216-4.91776 9.62048-0.11264 0.19328-0.22528 0.36608-0.33792 0.54784a95.3152 95.3152 0 0 1-5.87264 8.80896v0.17408h19.15008v-19.15136z m19.15008 19.15008h19.15008v-19.15008h-19.15008v19.15008z m-38.30016 0h-0.13184a96.2432 96.2432 0 0 1-19.01824 19.01312v0.13568h19.15008v-19.1488z m-19.15008 57.44768h19.15008v-19.1488h-19.15008v19.1488z m19.15008-19.1488h19.15008v-19.1488h-19.15008v19.1488z m19.15008-19.1488h19.15008V590.1184h-19.15008v19.15008z m19.15008-57.45024h-19.15008v19.15008h19.15008v-19.15008z m-172.34944 57.45024h-19.1488v19.1488h19.1488v-19.1488z m-19.1488-19.15008h-19.1488v19.15008h19.1488V590.1184z m134.048 19.15008h-0.16896a95.88992 95.88992 0 0 1-8.80768 5.87136c-0.18688 0.11264-0.35584 0.224-0.55168 0.3328-3.10528 1.7984-6.30272 3.47264-9.62304 4.9216v8.02432h19.15008v-19.15008z m-95.74912 19.1488h-19.15008v19.1488h19.15008v-19.1488z m76.59904 0H530.5088v19.1488h19.15008v-19.1488z m-38.29888 0h-19.1488v19.1488h19.1488v-19.1488z" fill="" p-id="2156"></path><path d="M99.63904 705.01632H61.34016v19.15008h38.29888v-19.15008z m-38.29888 57.45024h76.59904v-19.15008H61.34016v19.15008z m861.73952-268.09728h38.30016v-19.15008h-38.30016v19.15008z m-38.30016-38.30016h76.60032v-19.1488h-76.60032v19.1488z" fill="#313E4B" p-id="2157"></path><path d="M453.90976 283.72096h114.8992c15.86816 0 28.72576-12.85632 28.72576-28.72448 0-15.86688-12.8576-28.72448-28.72576-28.72448h-114.8992c-15.86688 0-28.7232 12.8576-28.7232 28.72448 0 15.86816 12.85632 28.72448 28.7232 28.72448M511.36 436.91904c-52.88576 0-95.74784 42.8672-95.74784 95.74912s42.86208 95.74912 95.74784 95.74912 95.74912-42.86592 95.74912-95.74912c0-52.88192-42.86464-95.74912-95.74912-95.74912m0 153.19936c-31.73504 0-57.44896-25.72032-57.44896-57.45024 0-31.7312 25.71392-57.45024 57.44896-57.45024s57.44896 25.71904 57.44896 57.45024c0 31.7312-25.71392 57.45024-57.44896 57.45024m0-268.09728c-116.33792 0-210.64704 94.31296-210.64704 210.64704 0 116.33408 94.30912 210.64704 210.64704 210.64704 116.3392 0 210.6496-94.31424 210.6496-210.64704-0.00128-116.33408-94.3104-210.64704-210.6496-210.64704m0 382.9952c-95.1872 0-172.34816-77.1648-172.34816-172.34688 0-95.18336 77.16096-172.34816 172.34816-172.34816 95.18848 0 172.34944 77.16608 172.34944 172.34816-0.00128 95.18208-77.16224 172.34688-172.34944 172.34688m411.71968-545.76896H339.01184c-29.68704 0-58.97344 20.29952-71.3536 48.88832-11.6224 27.49952-38.7392 46.85952-70.47424 46.85952h-11.37024c15.86688 0 28.7232-12.85632 28.7232-28.72448 0-15.86688-12.85632-28.7232-28.7232-28.7232h-57.45024c-15.86816 0-28.72448 12.85632-28.72448 28.7232 0 15.86816 12.85632 28.72448 28.72448 28.72448H99.63904C57.3376 254.99648 23.04 289.29408 23.04 331.59552v440.44544C23.04 814.3424 57.3376 848.64 99.63904 848.64h823.44064C965.3824 848.64 999.68 814.3424 999.68 772.03968V235.8464c0-42.30144-34.2976-76.59904-76.60032-76.59904m38.30016 612.79232c0 21.12384-17.1776 38.30016-38.30016 38.30016H99.63904c-21.12256 0-38.29888-17.17632-38.29888-38.30016V331.59552c0-21.12128 17.17632-38.29888 38.29888-38.29888h97.54496c46.21056 0 82.44352-22.9696 105.76256-70.25024 0 0 9.36064-25.4976 36.064-25.4976h584.06912c21.12256 0 38.30016 17.17632 38.30016 38.29888v536.192z m-95.7504-536.19328c-31.73376 0-57.44768 25.71904-57.44768 57.45024s25.71392 57.44896 57.44768 57.44896c31.73632 0 57.45024-25.71776 57.45024-57.44896s-25.71392-57.45024-57.45024-57.45024m0 76.60032c-10.58432 0-19.1488-8.57984-19.1488-19.15008 0-10.57152 8.56448-19.15008 19.1488-19.15008 10.58688 0 19.15008 8.57856 19.15008 19.15008 0 10.57024-8.5632 19.15008-19.15008 19.15008m-124.47232-47.87584c-15.86816 0-28.72448 12.85632-28.72448 28.72448 0 15.86688 12.85632 28.72448 28.72448 28.72448 15.86688 0 28.72448-12.8576 28.72448-28.72448 0.00128-15.86688-12.85632-28.72448-28.72448-28.72448" fill="" p-id="2158"></path></svg>