<?xml version="1.0" standalone="no"?><!DOCTYPE svg PUBLIC "-//W3C//DTD SVG 1.1//EN" "http://www.w3.org/Graphics/SVG/1.1/DTD/svg11.dtd"><svg t="1584125441964" class="icon" viewBox="0 0 1024 1024" version="1.1" xmlns="http://www.w3.org/2000/svg" p-id="5897" xmlns:xlink="http://www.w3.org/1999/xlink" width="200" height="200"><defs><style type="text/css"></style></defs><path d="M778.8 915H283.9c-5.5 0-10-4.5-10-10V108.2c0-5.5 4.5-10 10-10h494.9c5.5 0 10 4.5 10 10V905c0 5.5-4.5 10-10 10z" fill="#8a8a8a" p-id="5898"></path><path d="M776.5 138.2c5.4 0 10 4.6 10 10v730c0 5.4-4.6 10-10 10H180.7c-5.4 0-10-4.6-10-10v-730c0-5.4 4.6-10 10-10h595.8m0-40H180.7c-27.5 0-50 22.5-50 50v730c0 27.5 22.5 50 50 50h595.8c27.5 0 50-22.5 50-50v-730c0-27.5-22.5-50-50-50z" fill="#8a8a8a" p-id="5899"></path><path d="M101.4 360.2c-11 0-20-8.9-20-20 0-11 8.9-20 20-20l108.4-0.1c11 0 20 8.9 20 20 0 11-8.9 20-20 20l-108.4 0.1zM101.4 703c-11 0-20-8.9-20-20 0-11 8.9-20 20-20l108.4-0.2c11 0 20 8.9 20 20 0 11-8.9 20-20 20l-108.4 0.2zM101.4 532.2c-11 0-20-8.9-20-20 0-11 8.9-20 20-20l108.4-0.2c11 0 20 8.9 20 20 0 11-8.9 20-20 20l-108.4 0.2zM716.5 276H338.7c-11 0-20-9-20-20s9-20 20-20h377.8c11 0 20 9 20 20s-8.9 20-20 20zM635.5 373.4H338.4c-11 0-20-9-20-20s9-20 20-20h297.1c11 0 20 9 20 20s-9 20-20 20z" fill="#8a8a8a" p-id="5900"></path></svg>