<svg width="1024" height="1024" xmlns="http://www.w3.org/2000/svg" class="icon">
 <defs>
  <style type="text/css"/>
 </defs>
 <g>
  <title>background</title>
  <rect fill="none" id="canvas_background" height="402" width="582" y="-1" x="-1"/>
 </g>
 <g>
  <title>Layer 1</title>
  <path id="svg_1" fill="#8F3694" d="m467.899892,222.996866l0,411.2l354.7,63.1c14.3,2.5 27.4,-8.5 27.4,-23l0,-404.5l-382.1,-46.8zm0,0l0,411.2l-271.9,59c-21.2,4.6 -41.3,-11.6 -41.3,-33.3l0,-390.1l313.2,-46.8z"/>
  <path id="svg_2" fill="#CAC134" d="m477.299892,476.696866c-3.8,9.7 -13.9,15.4 -24.1,13.6l-298.3,-51.7l0,237.3c0,15.3 10.8,28.4 25.8,31.3l356.3,68.7l0,-452.4l-59.7,153.2zm-322.5,-206.9l0,1.3l0.5,-1.2l-0.5,-0.1zm382.1,51.1l-260.8,-34.9l260.8,35l0,-0.1z"/>
  <path id="svg_3" fill="#FFBA3B" d="m537.299892,321.096866l-0.1,-0.3l-0.3,0.1l0,0.1l0.4,0.1zm312.7,-51.3l-0.3,0.1l0.3,0.6l0,-0.7zm-242.7,208.8l-69.7,-157l-0.7,1.9l0,452.4l288.6,-67.9c14.4,-3.4 24.5,-16.2 24.5,-31l0,-231.8l-218.2,45.9c-10.1,2.1 -20.3,-3.1 -24.5,-12.5zm-508.1,-77c-5.5,13 2.5,27.7 16.4,30.2l39.2,6.8l0,-167.5l-55.6,130.5z"/>
  <path id="svg_4" fill="#FE506B" d="m155.299892,269.796866l0,0.1l120.8,16.1l-120.8,-16.2z"/>
  <path id="svg_5" fill="#CAC134" d="m477.299892,476.696866l59.6,-153.2l0,-2.5l-260.8,-35l-120.8,-16.1l-0.5,1.2l0,167.5l298.3,51.7c10.3,1.8 20.4,-3.9 24.2,-13.6z"/>
  <path id="svg_6" fill="#FF7C20" d="m477.299892,476.696866l59.6,-153.2l0,-2.5l-260.8,-35l-120.8,-16.1l-0.5,1.2l0,167.5l298.3,51.7c10.3,1.8 20.4,-3.9 24.2,-13.6z"/>
  <path id="svg_7" fill="#FFBA3B" d="m536.899892,323.496866l0.7,-1.9l-0.3,-0.5l-0.4,-0.1l0,2.5z"/>
  <path id="svg_8" fill="#FE506B" d="m536.899892,323.496866l0.7,-1.9l-0.3,-0.5l-0.4,-0.1l0,2.5z"/>
  <path id="svg_9" fill="#FFBA3B" d="m914.199892,403.896866l-64.2,-133.4l0,174.7l49,-10.3c13.9,-3 21.4,-18.2 15.2,-31z"/>
  <path id="svg_10" fill="#FE506B" d="m849.599892,269.596866l-312.6,50.7l0.2,0.5l312.5,-50.9l-0.1,-0.3z"/>
  <path id="svg_11" fill="#FFBA3B" d="m849.699892,269.896866l-312.5,50.9l0.1,0.3l0.4,0.1l-0.2,0.5l69.7,157c4.2,9.4 14.4,14.7 24.5,12.5l218.3,-46l0,-174.7l-0.3,-0.6z"/>
  <path id="svg_12" fill="#FF7C20" d="m849.699892,269.896866l-312.5,50.9l0.1,0.3l0.4,0.1l-0.2,0.5l69.7,157c4.2,9.4 14.4,14.7 24.5,12.5l218.3,-46l0,-174.7l-0.3,-0.6z"/>
  <path id="svg_13" fill="#FFBA3B" d="m537.799892,321.096866l-0.5,0l0.3,0.5l0.2,-0.5z"/>
  <path id="svg_14" fill="#FE506B" d="m537.799892,321.096866l-0.5,0l0.3,0.5l0.2,-0.5z"/>
  <path id="svg_15" fill="#FE506B" d="m537.799892,321.096866l-0.5,0l0.3,0.5l0.2,-0.5z"/>
  <path id="svg_16" fill="#FFBA3B" d="m817.299892,207.996866l-437.4,0c-26.2,0 -47.5,-21.3 -47.5,-47.5l0,-102.7c0,-26.2 21.3,-47.5 47.5,-47.5l437.4,0c26.2,0 47.5,21.3 47.5,47.5l0,102.7c0,26.2 -21.3,47.5 -47.5,47.5z"/>
  <path id="svg_17" fill="#FFBA3B" d="m482.599892,182.596866s6.4,6.7 4.8,50.4c-1.9,51.6 35.7,65.8 35.6,62.7c-0.3,-10.3 -4.4,-30.2 13.8,-58.7c11.2,-17.5 30.7,-32.5 25.3,-57.8c-5,-23.6 -79.5,3.4 -79.5,3.4z"/>
  <path id="svg_18" fill="#FE506B" d="m511.399892,109.096866m-19.2,0a19.2,19.2 0 1 0 38.4,0a19.2,19.2 0 1 0 -38.4,0z"/>
  <path id="svg_19" fill="#FE506B" d="m598.599892,109.096866m-19.2,0a19.2,19.2 0 1 0 38.4,0a19.2,19.2 0 1 0 -38.4,0z"/>
  <path id="svg_20" fill="#FE506B" d="m685.799892,109.096866m-19.2,0a19.2,19.2 0 1 0 38.4,0a19.2,19.2 0 1 0 -38.4,0z"/>
  <text xml:space="preserve" text-anchor="start" font-family="Helvetica, Arial, sans-serif" font-size="150" id="svg_21" y="961.712142" x="258.993198" fill-opacity="null" stroke-opacity="null" stroke-width="0" stroke="null" fill="#000000">加载中...</text>
 </g>
</svg>